<?xml version="1.0" standalone="no"?>
<!DOCTYPE svg PUBLIC "-//W3C//DTD SVG 20010904//EN"
 "http://www.w3.org/TR/2001/REC-SVG-20010904/DTD/svg10.dtd">
<svg version="1.0" xmlns="http://www.w3.org/2000/svg"
 width="600.000000pt" height="600.000000pt" viewBox="0 0 600.000000 600.000000"
 preserveAspectRatio="xMidYMid meet">
<metadata>
Created by potrace 1.14, written by Peter Selinger 2001-2017
</metadata>
<g transform="translate(0.000000,600.000000) scale(0.100000,-0.100000)"
fill="#000000" stroke="none">
<path d="M1950 4581 c-89 -25 -165 -56 -227 -94 -45 -27 -53 -36 -53 -62 0
-16 16 -176 35 -355 18 -179 37 -382 41 -452 6 -114 9 -129 31 -152 13 -14 28
-26 32 -26 5 0 62 18 127 41 66 22 132 43 147 46 37 7 42 24 21 64 -21 42 -74
197 -74 219 0 13 22 23 86 40 47 12 113 36 147 53 110 55 207 173 207 252 0
32 6 31 40 -5 15 -17 39 -30 52 -30 16 0 5 -10 -43 -36 l-66 -35 -16 -97 c-22
-126 -47 -317 -47 -359 0 -18 5 -33 10 -33 6 0 10 -7 10 -15 0 -9 9 -15 24
-15 31 0 162 48 174 64 10 11 72 431 72 481 0 14 -4 25 -10 25 -5 0 -10 7 -10
15 0 8 -4 15 -10 15 -19 0 -10 17 29 58 42 44 58 90 42 120 -5 10 -28 31 -49
46 -38 26 -42 26 -73 13 -19 -8 -51 -33 -71 -55 -21 -23 -42 -42 -47 -42 -5 0
-12 17 -16 38 -17 98 -90 199 -174 242 -98 49 -230 61 -341 31z"/>
<path d="M4253 4236 c-25 -11 -32 -21 -35 -48 -3 -28 -7 -33 -28 -32 -14 1
-40 8 -58 15 -30 13 -37 12 -88 -15 -75 -39 -146 -122 -202 -235 -46 -91 -47
-97 -47 -185 0 -105 17 -151 71 -192 54 -42 103 -43 180 -4 l65 33 16 -22 c14
-20 22 -23 58 -17 40 5 175 53 175 62 0 2 9 66 19 141 29 202 44 414 32 446
-20 51 -100 78 -158 53z"/>
<path d="M3045 4074 c-132 -23 -274 -62 -309 -83 -38 -24 -46 -52 -46 -163 0
-64 1 -68 30 -85 17 -9 30 -23 30 -30 0 -7 -37 -63 -81 -124 l-82 -110 23 -21
c21 -20 26 -20 109 -9 146 20 301 51 384 78 l80 25 -5 109 c-4 97 -7 112 -28
134 -15 16 -34 25 -53 25 l-29 0 18 27 c9 15 37 52 62 82 25 30 51 71 59 89
13 32 13 36 -6 53 -23 22 -47 22 -156 3z"/>
<path d="M3625 4074 c-113 -20 -245 -54 -280 -71 -63 -32 -65 -37 -65 -148 0
-98 1 -102 25 -115 14 -7 25 -20 25 -28 0 -8 -36 -64 -81 -125 -68 -93 -79
-111 -65 -119 9 -5 16 -15 16 -22 0 -22 345 36 501 85 l66 21 -4 54 c-2 30 -4
79 -6 109 -4 62 -34 105 -74 105 -34 0 -29 16 31 89 53 65 86 120 86 141 0 22
-29 40 -62 39 -18 0 -69 -7 -113 -15z"/>
<path d="M805 3776 c-174 -29 -378 -92 -552 -172 -69 -31 -73 -35 -73 -66 0
-38 28 -266 64 -518 58 -401 96 -753 96 -882 0 -62 2 -69 27 -85 15 -10 38
-29 51 -41 16 -17 30 -22 45 -18 12 3 67 15 122 27 55 11 168 41 252 65 83 24
162 44 175 44 21 0 68 32 68 46 0 3 -11 20 -24 37 -49 65 -170 334 -164 364 2
11 39 23 138 43 186 37 298 73 415 130 134 67 233 149 269 225 57 120 70 239
41 364 -51 214 -233 365 -509 422 -120 25 -337 32 -441 15z"/>
<path d="M4070 3435 c-148 -32 -218 -60 -239 -97 -21 -33 -55 -194 -72 -341
-7 -54 -18 -105 -25 -115 -10 -14 -13 -11 -23 24 -22 82 -82 143 -164 165 -57
15 -185 12 -236 -6 -55 -19 -58 -19 -66 5 -3 11 -15 20 -26 20 -10 0 -19 6
-19 14 0 25 -55 37 -101 21 -61 -22 -256 -125 -274 -145 -33 -36 -60 -274 -71
-607 -7 -203 -6 -213 12 -220 10 -4 27 -17 37 -30 11 -14 29 -23 46 -23 25 0
218 75 287 112 37 20 37 20 60 241 18 166 25 187 53 153 7 -8 31 -23 54 -34
129 -61 287 -21 363 91 53 78 53 78 53 -45 -1 -168 28 -265 106 -356 94 -109
378 -179 502 -122 125 56 290 300 318 468 8 51 -7 80 -63 116 -37 25 -38 25
-188 17 -203 -11 -204 -12 -225 -126 -21 -112 -34 -145 -55 -145 -15 0 -16 11
-11 98 3 53 12 131 18 174 14 89 13 88 155 88 110 0 130 9 138 57 12 83 11
186 -2 191 -7 2 -24 15 -37 28 -19 19 -35 24 -75 24 -27 0 -50 4 -50 10 0 5 9
56 20 112 23 117 25 148 9 148 -6 0 -24 14 -39 30 -33 35 -34 35 -170 5z"/>
<path d="M2420 3234 c-8 -3 -32 -12 -52 -21 l-38 -16 0 -64 c0 -34 -4 -63 -9
-63 -5 0 -42 14 -82 32 -123 53 -228 36 -369 -58 -107 -72 -220 -174 -220
-199 0 -4 -13 -24 -30 -44 -39 -50 -104 -174 -125 -240 -24 -72 -17 -197 14
-266 30 -69 103 -141 167 -165 119 -44 202 -36 348 33 l88 41 33 -38 33 -39
68 6 c79 8 224 45 309 79 l59 24 23 124 c45 241 74 467 80 626 7 176 10 161
-53 213 -34 29 -193 51 -244 35z"/>
<path d="M4830 2930 c-141 -12 -174 -21 -178 -49 -10 -65 164 -508 263 -670
19 -32 35 -63 35 -69 0 -11 -296 -264 -482 -412 -72 -57 -107 -92 -107 -105 0
-46 261 -234 381 -274 105 -36 113 -33 209 67 313 323 885 1187 944 1423 6 23
1 31 -30 55 l-36 27 -216 -10 c-182 -9 -218 -13 -229 -27 -6 -9 -26 -58 -44
-109 -56 -162 -91 -238 -107 -235 -10 2 -31 49 -57 123 -77 221 -111 267 -198
271 -29 1 -96 -2 -148 -6z"/>
<path d="M3792 2073 c-13 -3 -26 -12 -29 -21 -2 -9 -10 -28 -16 -41 -9 -19 -9
-25 1 -28 8 -3 12 -27 12 -72 0 -90 14 -106 88 -102 27 1 30 31 3 31 -22 0
-31 26 -31 93 0 40 3 47 20 47 13 0 20 7 20 20 0 14 -7 20 -21 20 -18 0 -21 5
-17 30 3 17 2 29 -1 29 -3 -1 -16 -4 -29 -6z"/>
<path d="M3565 2005 c-22 -8 -41 -15 -42 -15 -2 0 -3 -6 -3 -14 0 -11 12 -14
47 -13 36 2 48 -2 51 -14 2 -10 -9 -18 -34 -25 -21 -5 -46 -21 -57 -35 -16
-23 -17 -30 -7 -50 7 -13 18 -27 24 -31 17 -12 64 -9 72 3 3 6 16 8 29 5 36
-9 44 11 36 92 -9 99 -39 124 -116 97z"/>
<path d="M3943 2013 c-22 -4 -23 -9 -23 -104 l0 -99 29 0 c35 0 41 13 41 96 0
61 1 64 24 64 16 0 26 7 29 22 8 30 2 34 -30 17 -20 -11 -27 -11 -30 -1 -3 6
-8 11 -11 11 -4 -1 -17 -4 -29 -6z"/>
<path d="M4130 2001 c-14 -4 -25 -13 -25 -21 0 -11 10 -14 43 -12 39 4 42 2
42 -22 0 -23 -4 -26 -33 -26 -66 0 -103 -64 -59 -102 21 -19 129 -29 141 -14
4 6 11 43 14 82 6 80 -1 97 -46 114 -31 11 -40 11 -77 1z"/>
<path d="M3433 1992 c-6 -4 -14 -20 -17 -35 -3 -15 -8 -38 -11 -52 -5 -21 -8
-23 -18 -13 -7 7 -20 31 -29 53 -13 33 -20 39 -39 37 -13 -2 -25 -5 -27 -7 -1
-1 18 -45 43 -97 41 -84 49 -94 69 -91 19 4 26 18 45 91 13 48 26 95 28 105 6
18 -21 24 -44 9z"/>
<path d="M3045 1951 c-38 -16 -60 -51 -59 -95 2 -86 66 -131 143 -100 44 17
51 42 10 35 -51 -8 -72 -5 -82 11 -15 24 -8 28 57 35 46 5 56 9 56 25 0 31
-27 73 -55 86 -30 14 -42 14 -70 3z"/>
<path d="M361 1824 c-23 -69 -41 -127 -39 -129 1 -2 14 -6 28 -10 23 -5 27 -2
40 37 13 37 19 43 40 40 86 -10 102 -7 126 23 29 37 30 64 4 98 -18 23 -112
67 -143 67 -7 0 -32 -57 -56 -126z"/>
<path d="M2826 1911 c-3 -5 -22 -9 -41 -8 -19 1 -37 -2 -40 -5 -5 -5 33 -277
40 -286 1 -1 15 3 29 9 25 12 27 16 21 51 -7 37 -6 38 22 38 78 0 112 122 52
186 -22 24 -72 33 -83 15z"/>
<path d="M2282 1880 c-18 -8 -21 -15 -16 -35 4 -15 2 -25 -5 -25 -15 0 -14
-16 3 -33 8 -8 18 -39 22 -68 11 -90 36 -113 98 -89 29 11 26 40 -4 40 -24 0
-27 5 -35 73 -6 49 -5 57 9 57 9 0 16 8 16 19 0 14 -5 18 -19 14 -15 -4 -21 2
-26 26 -7 34 -9 34 -43 21z"/>
<path d="M2460 1852 c-45 -22 -37 -38 18 -34 35 3 42 1 42 -15 -1 -11 -16 -25
-43 -38 -35 -17 -43 -25 -45 -52 -4 -40 33 -69 76 -58 15 3 38 7 52 8 24 2 52
25 45 38 -2 3 -9 34 -14 70 -15 95 -55 120 -131 81z"/>
<path d="M2120 1800 c-8 -5 -27 -10 -42 -10 -54 0 -55 -4 -42 -83 7 -40 16
-102 20 -139 3 -38 9 -68 13 -68 38 1 51 14 51 51 0 29 4 39 15 39 34 0 74 30
85 64 15 46 -2 108 -37 135 -29 23 -41 25 -63 11z"/>
<path d="M700 1770 c0 -13 7 -20 19 -20 29 0 51 -11 51 -25 0 -7 -22 -32 -50
-55 -69 -58 -67 -75 13 -89 88 -15 97 -14 97 9 0 16 -7 20 -35 20 -48 0 -45
16 15 75 68 67 66 78 -20 93 -91 15 -90 16 -90 -8z"/>
<path d="M1837 1754 c-28 -15 -32 -43 -6 -35 8 2 29 6 47 9 31 4 33 2 30 -19
-2 -15 -12 -25 -32 -30 -36 -10 -66 -37 -66 -59 0 -26 32 -61 55 -61 39 -1
105 14 114 25 12 16 -8 147 -27 169 -19 21 -76 22 -115 1z"/>
<path d="M897 1753 c-16 -16 -4 -33 28 -39 19 -3 35 -11 35 -17 0 -5 -20 -34
-45 -63 -48 -56 -57 -84 -26 -84 10 0 46 -3 80 -6 58 -7 61 -6 61 15 0 17 -6
21 -35 21 -19 0 -35 5 -35 11 0 6 20 34 45 61 62 69 60 85 -12 93 -32 4 -65 9
-74 11 -8 2 -18 1 -22 -3z"/>
<path d="M1631 1736 c-55 -30 -68 -114 -26 -164 29 -35 62 -44 103 -26 41 17
62 51 62 102 0 79 -73 125 -139 88z"/>
<path d="M1118 1729 c-16 -6 -28 -17 -28 -25 0 -12 9 -14 45 -8 44 6 45 5 45
-20 0 -22 -4 -26 -29 -26 -37 0 -81 -35 -81 -64 0 -38 33 -59 95 -59 31 0 61
5 67 11 16 16 14 161 -4 178 -19 19 -76 26 -110 13z"/>
<path d="M1444 1729 c-58 -29 -70 -128 -21 -177 29 -28 90 -33 115 -8 18 18
10 23 -43 28 -30 3 -30 4 -30 63 0 59 1 60 27 60 16 1 34 7 40 13 27 27 -43
42 -88 21z"/>
</g>
</svg>
