<?xml version="1.0" standalone="no"?>
<!DOCTYPE svg PUBLIC "-//W3C//DTD SVG 20010904//EN"
 "http://www.w3.org/TR/2001/REC-SVG-20010904/DTD/svg10.dtd">
<svg version="1.0" xmlns="http://www.w3.org/2000/svg"
 width="600.000000pt" height="600.000000pt" viewBox="0 0 600.000000 600.000000"
 preserveAspectRatio="xMidYMid meet">
<metadata>
Created by potrace 1.14, written by Peter Selinger 2001-2017
</metadata>
<g transform="translate(0.000000,600.000000) scale(0.100000,-0.100000)"
fill="#000000" stroke="none">
<path d="M1950 4581 c-89 -25 -165 -56 -227 -94 -45 -27 -53 -36 -53 -62 0
-16 16 -176 35 -355 18 -179 37 -382 41 -452 6 -114 9 -129 31 -152 13 -14 28
-26 32 -26 5 0 62 18 127 41 66 22 132 43 147 46 37 7 42 24 21 64 -21 42 -74
197 -74 219 0 13 22 23 86 40 117 31 199 74 265 140 47 46 58 65 75 123 10 37
24 67 30 67 6 0 21 -11 34 -25 13 -14 32 -25 42 -25 37 0 16 -26 -47 -59 -60
-31 -65 -36 -64 -65 l1 -31 7 29 c5 24 19 37 76 67 67 36 105 48 105 32 0 -5
-9 -57 -19 -118 -17 -97 -36 -240 -44 -329 -2 -26 -9 -32 -62 -52 -33 -13 -73
-23 -89 -23 -25 -1 -28 2 -22 22 3 12 13 83 21 157 9 74 18 153 21 175 4 37 3
37 -10 -10 -15 -53 -46 -278 -46 -333 0 -18 5 -32 10 -32 6 0 10 -7 10 -15 0
-9 9 -15 24 -15 31 0 162 48 174 64 10 11 72 431 72 481 0 14 -4 25 -10 25 -5
0 -10 7 -10 15 0 8 -4 15 -10 15 -19 0 -10 17 29 58 42 44 58 90 42 120 -5 10
-28 31 -49 46 -38 26 -42 26 -73 13 -19 -8 -51 -33 -71 -55 -21 -23 -42 -42
-47 -42 -5 0 -12 17 -16 38 -17 98 -90 199 -174 242 -98 49 -230 61 -341 31z
m268 -32 c39 -12 72 -26 72 -30 0 -5 4 -9 9 -9 14 0 63 -53 85 -91 29 -52 35
-213 10 -285 -10 -30 -22 -54 -26 -54 -4 0 -8 -7 -8 -15 0 -8 -3 -15 -7 -15
-5 0 -24 -15 -43 -33 -19 -17 -46 -37 -60 -44 -27 -12 -154 -53 -232 -74 -26
-7 -49 -18 -51 -24 -6 -14 19 -108 43 -160 11 -24 20 -51 20 -59 0 -8 5 -18
10 -21 18 -11 10 -43 -12 -51 -13 -4 -25 -9 -28 -13 -3 -3 -32 -14 -65 -25
-33 -10 -77 -25 -98 -32 -20 -8 -41 -14 -46 -14 -5 0 -12 35 -16 78 -4 42 -17
172 -30 288 -39 347 -51 549 -35 579 7 14 19 25 27 25 7 0 13 4 13 9 0 5 10
13 23 16 12 4 46 16 76 27 126 50 259 59 369 27z m455 -249 c-4 -50 -82 -122
-127 -118 -51 5 -48 62 6 123 28 33 35 36 77 33 46 -3 46 -3 44 -38z"/>
<path d="M1943 4137 c-24 -6 -43 -16 -43 -23 0 -15 41 -188 45 -193 2 -1 21
11 43 29 57 45 79 131 46 178 -16 24 -26 25 -91 9z"/>
<path d="M4253 4236 c-25 -11 -32 -21 -35 -48 -3 -28 -7 -33 -28 -32 -14 1
-40 8 -58 15 -30 13 -37 12 -88 -15 -75 -39 -146 -122 -202 -235 -46 -91 -47
-97 -47 -185 0 -105 17 -151 71 -192 54 -42 103 -43 180 -4 l65 33 16 -22 c14
-20 22 -23 58 -17 40 5 175 53 175 62 0 2 9 66 19 141 29 202 44 414 32 446
-20 51 -100 78 -158 53z m95 -26 c9 0 11 -24 6 -102 -8 -154 -35 -430 -45
-454 -5 -15 -27 -28 -70 -43 -91 -31 -101 -29 -98 17 3 62 1 64 -37 30 -73
-67 -113 -88 -170 -88 -74 0 -101 25 -116 107 -15 81 6 169 65 272 77 137 177
216 250 197 32 -8 87 -53 87 -72 0 -8 5 -14 10 -14 6 0 10 24 10 53 0 91 16
112 75 101 11 -2 26 -4 33 -4z"/>
<path d="M4103 3938 c-31 -34 -53 -83 -53 -118 0 -23 6 -33 26 -42 41 -19 93
14 118 75 18 44 19 51 5 75 -20 37 -67 41 -96 10z"/>
<path d="M3045 4074 c-132 -23 -274 -62 -309 -83 -38 -24 -46 -52 -46 -163 0
-64 1 -68 30 -85 17 -9 30 -23 30 -30 0 -7 -37 -63 -81 -124 l-82 -110 23 -21
c21 -20 26 -20 109 -9 146 20 301 51 384 78 l80 25 -5 109 c-4 97 -7 112 -28
134 -15 16 -34 25 -53 25 l-29 0 18 27 c9 15 37 52 62 82 25 30 51 71 59 89
13 32 13 36 -6 53 -23 22 -47 22 -156 3z m105 -31 c0 -18 -80 -120 -188 -242
-30 -34 -49 -61 -42 -61 6 0 51 12 100 27 50 14 92 25 94 22 2 -2 5 -47 7 -99
l4 -95 -120 -32 c-125 -33 -312 -73 -346 -73 -10 0 -19 5 -19 11 0 10 103 156
193 273 24 31 26 37 11 33 -48 -15 -115 -29 -118 -26 -3 2 -2 44 1 92 6 84 7
89 34 103 47 24 283 77 372 83 10 1 17 -6 17 -16z"/>
<path d="M3625 4074 c-113 -20 -245 -54 -280 -71 -63 -32 -65 -37 -65 -148 0
-98 1 -102 25 -115 14 -7 25 -20 25 -28 0 -8 -36 -64 -81 -125 -68 -93 -79
-111 -65 -119 9 -5 16 -15 16 -22 0 -22 345 36 501 85 l66 21 -4 54 c-2 30 -4
79 -6 109 -4 62 -34 105 -74 105 -34 0 -29 16 31 89 53 65 86 120 86 141 0 22
-29 40 -62 39 -18 0 -69 -7 -113 -15z m105 -32 c0 -20 -107 -159 -186 -240
-50 -52 -63 -82 -26 -63 9 4 52 19 95 31 96 28 97 28 97 -90 l0 -85 -168 -42
c-235 -60 -322 -74 -322 -52 0 6 33 54 73 107 77 101 149 202 144 202 -1 0
-27 -7 -57 -15 -30 -8 -58 -15 -62 -15 -5 0 -8 41 -8 90 l0 91 43 18 c50 21
155 47 263 66 108 18 114 18 114 -3z"/>
<path d="M805 3776 c-174 -29 -378 -92 -552 -172 -69 -31 -73 -35 -73 -66 0
-38 28 -266 64 -518 58 -401 96 -753 96 -882 0 -62 2 -69 27 -85 15 -10 38
-29 51 -41 16 -17 30 -22 45 -18 12 3 67 15 122 27 55 11 168 41 252 65 83 24
162 44 175 44 21 0 68 32 68 46 0 3 -11 20 -24 37 -49 65 -170 334 -164 364 2
11 39 23 138 43 233 47 392 104 513 184 48 32 72 54 148 136 35 38 72 152 76
240 17 295 -176 509 -521 581 -120 25 -337 32 -441 15z m472 -65 c167 -41 269
-115 330 -238 34 -69 38 -85 41 -173 7 -156 -22 -248 -105 -341 -93 -102 -241
-165 -530 -224 -93 -19 -189 -41 -215 -50 l-47 -17 16 -41 c9 -23 47 -112 85
-197 39 -85 72 -164 75 -176 4 -18 -5 -25 -62 -48 -61 -24 -417 -116 -451
-116 -10 0 -14 13 -14 43 0 46 -18 193 -80 632 -52 375 -70 550 -70 679 l0
105 45 27 c101 59 333 126 531 153 109 15 355 5 451 -18z"/>
<path d="M718 3067 l-86 -22 38 -120 c22 -66 39 -133 40 -148 0 -34 23 -44 53
-23 12 9 46 32 75 51 66 44 92 85 92 147 0 64 -14 94 -52 118 -40 24 -51 24
-160 -3z"/>
<path d="M4070 3435 c-148 -32 -218 -60 -239 -97 -21 -33 -55 -194 -72 -341
-7 -54 -18 -105 -25 -115 -10 -14 -13 -11 -23 24 -22 82 -82 143 -164 165 -57
15 -185 12 -236 -6 -55 -19 -58 -19 -66 5 -3 11 -15 20 -26 20 -10 0 -19 6
-19 14 0 25 -55 37 -101 21 -61 -22 -256 -125 -274 -145 -33 -36 -60 -274 -71
-607 -7 -203 -6 -213 12 -220 10 -4 27 -17 37 -30 11 -14 29 -23 46 -23 25 0
218 75 287 112 37 20 37 20 60 241 18 166 25 187 53 153 7 -8 31 -23 54 -34
129 -61 287 -21 363 91 53 78 53 78 53 -45 -1 -168 28 -265 106 -356 94 -109
378 -179 502 -122 125 56 290 300 318 468 8 51 -7 80 -63 116 -37 25 -38 25
-188 17 -203 -11 -204 -12 -225 -126 -21 -112 -34 -145 -55 -145 -15 0 -16 11
-11 98 3 53 12 131 18 174 14 89 13 88 155 88 110 0 130 9 138 57 12 83 11
186 -2 191 -7 2 -24 15 -37 28 -19 19 -35 24 -75 24 -27 0 -50 4 -50 10 0 5 9
56 20 112 23 117 25 148 9 148 -6 0 -24 14 -39 30 -33 35 -34 35 -170 5z m116
-82 c-3 -21 -21 -91 -40 -157 -18 -65 -31 -126 -29 -136 4 -16 10 -16 100 2
52 11 97 17 100 15 3 -3 2 -39 -2 -80 l-7 -74 -102 -7 c-55 -3 -117 -10 -136
-14 l-34 -8 -23 -139 c-27 -169 -28 -220 -7 -281 20 -60 55 -114 73 -114 26 0
79 49 99 92 11 24 28 83 38 131 14 72 21 90 38 96 12 5 76 11 144 14 143 8
136 17 97 -117 -36 -126 -82 -213 -145 -278 -75 -76 -137 -96 -258 -80 -331
44 -384 278 -224 1002 l27 125 100 22 c55 11 122 22 149 22 l49 1 -7 -37z
m-1046 -336 c0 -28 -4 -67 -9 -85 -14 -48 12 -42 93 19 89 67 126 81 213 81
129 0 177 -51 170 -177 -8 -150 -99 -236 -233 -222 -114 12 -159 76 -119 170
13 32 13 36 -3 43 -9 4 -24 6 -32 5 -31 -5 -79 -52 -101 -98 -21 -43 -24 -66
-29 -235 -6 -231 -3 -225 -151 -285 -117 -48 -129 -50 -129 -25 0 80 38 672
46 714 6 33 73 78 177 119 103 41 107 40 107 -24z"/>
<path d="M2420 3234 c-8 -3 -32 -12 -52 -21 l-38 -16 0 -64 c0 -34 -4 -63 -9
-63 -5 0 -42 14 -82 32 -89 38 -155 40 -244 7 -203 -75 -427 -320 -500 -548
-24 -72 -17 -197 14 -266 30 -69 103 -141 167 -165 119 -44 202 -36 348 33
l88 41 33 -38 33 -39 68 6 c79 8 224 45 309 79 l59 24 23 124 c45 241 74 467
80 626 7 176 10 161 -53 213 -34 29 -193 51 -244 35z m185 -56 c15 -14 -32
-505 -73 -763 l-17 -109 -90 -28 c-112 -35 -243 -63 -251 -55 -4 4 -1 33 6 65
7 33 9 69 6 80 -7 20 -14 17 -101 -44 -131 -91 -192 -116 -291 -122 -95 -5
-141 7 -190 50 -73 65 -85 235 -25 363 75 162 256 362 384 425 123 60 263 50
342 -25 19 -18 35 -40 35 -49 0 -9 8 -16 19 -16 17 0 20 11 26 111 7 100 9
111 29 120 21 9 181 7 191 -3z"/>
<path d="M2145 2796 c-65 -29 -145 -134 -152 -200 -7 -62 18 -81 111 -81 62 0
78 4 114 27 46 31 90 99 99 152 7 45 -16 82 -62 102 -42 17 -71 17 -110 0z"/>
<path d="M4830 2930 c-141 -12 -174 -21 -178 -49 -10 -65 164 -508 263 -670
19 -32 35 -63 35 -69 0 -11 -296 -264 -482 -412 -72 -57 -107 -92 -107 -105 0
-46 261 -234 381 -274 105 -36 113 -33 209 67 313 323 885 1187 944 1423 6 23
1 31 -30 55 l-36 27 -216 -10 c-182 -9 -218 -13 -229 -27 -6 -9 -26 -58 -44
-109 -56 -162 -91 -238 -107 -235 -10 2 -31 49 -57 123 -77 221 -111 267 -198
271 -29 1 -96 -2 -148 -6z m228 -197 c112 -387 123 -412 165 -353 38 52 137
266 169 365 25 79 38 105 53 109 36 8 326 29 332 23 14 -15 -108 -271 -203
-428 -95 -158 -207 -316 -352 -499 -76 -96 -200 -254 -276 -350 -76 -96 -144
-176 -152 -178 -62 -14 -364 153 -364 202 0 7 51 53 113 102 147 116 379 309
440 365 l48 44 -129 255 c-139 276 -202 418 -202 455 0 28 16 30 205 33 l111
2 42 -147z"/>
<path d="M3792 2073 c-13 -3 -26 -12 -29 -21 -2 -9 -10 -28 -16 -41 -9 -19 -9
-25 1 -28 8 -3 12 -27 12 -72 0 -90 14 -106 88 -102 27 1 30 31 3 31 -22 0
-31 26 -31 93 0 40 3 47 20 47 13 0 20 7 20 20 0 14 -7 20 -21 20 -18 0 -21 5
-17 30 3 17 2 29 -1 29 -3 -1 -16 -4 -29 -6z"/>
<path d="M3565 2005 c-22 -8 -41 -15 -42 -15 -2 0 -3 -6 -3 -14 0 -11 12 -14
47 -13 36 2 48 -2 51 -14 2 -10 -9 -18 -34 -25 -21 -5 -46 -21 -57 -35 -16
-23 -17 -30 -7 -50 7 -13 18 -27 24 -31 17 -12 64 -9 72 3 3 6 16 8 29 5 36
-9 44 11 36 92 -9 99 -39 124 -116 97z"/>
<path d="M3943 2013 c-22 -4 -23 -9 -23 -104 l0 -99 29 0 c35 0 41 13 41 96 0
61 1 64 24 64 16 0 26 7 29 22 8 30 2 34 -30 17 -20 -11 -27 -11 -30 -1 -3 6
-8 11 -11 11 -4 -1 -17 -4 -29 -6z"/>
<path d="M4130 2001 c-14 -4 -25 -13 -25 -21 0 -11 10 -14 43 -12 39 4 42 2
42 -22 0 -23 -4 -26 -33 -26 -66 0 -103 -64 -59 -102 21 -19 129 -29 141 -14
4 6 11 43 14 82 6 80 -1 97 -46 114 -31 11 -40 11 -77 1z"/>
<path d="M3433 1992 c-6 -4 -14 -20 -17 -35 -3 -15 -8 -38 -11 -52 -5 -21 -8
-23 -18 -13 -7 7 -20 31 -29 53 -13 33 -20 39 -39 37 -13 -2 -25 -5 -27 -7 -1
-1 18 -45 43 -97 41 -84 49 -94 69 -91 19 4 26 18 45 91 13 48 26 95 28 105 6
18 -21 24 -44 9z"/>
<path d="M3045 1951 c-38 -16 -60 -51 -59 -95 2 -86 66 -131 143 -100 44 17
51 42 10 35 -51 -8 -72 -5 -82 11 -15 24 -8 28 57 35 46 5 56 9 56 25 0 31
-27 73 -55 86 -30 14 -42 14 -70 3z"/>
<path d="M361 1825 c-23 -70 -41 -128 -39 -130 1 -2 15 -6 29 -10 23 -6 27 -2
38 34 15 50 22 55 68 41 52 -16 88 0 110 45 16 33 16 39 3 63 -16 28 -84 68
-135 77 l-30 6 -44 -126z"/>
<path d="M2826 1911 c-3 -5 -22 -9 -41 -8 -19 1 -37 -2 -40 -5 -5 -5 33 -277
40 -286 1 -1 15 3 29 9 25 12 27 16 21 51 -7 37 -6 38 22 38 78 0 112 122 52
186 -22 24 -72 33 -83 15z"/>
<path d="M2282 1880 c-18 -8 -21 -15 -16 -35 4 -15 2 -25 -5 -25 -15 0 -14
-16 3 -33 8 -8 18 -39 22 -68 11 -90 36 -113 98 -89 29 11 26 40 -4 40 -24 0
-27 5 -35 73 -6 49 -5 57 9 57 9 0 16 8 16 19 0 14 -5 18 -19 14 -15 -4 -21 2
-26 26 -7 34 -9 34 -43 21z"/>
<path d="M2460 1852 c-45 -22 -37 -38 18 -34 35 3 42 1 42 -15 -1 -11 -16 -25
-43 -38 -35 -17 -43 -25 -45 -52 -4 -40 33 -69 76 -58 15 3 38 7 52 8 24 2 52
25 45 38 -2 3 -9 34 -14 70 -15 95 -55 120 -131 81z"/>
<path d="M2120 1800 c-8 -5 -27 -10 -42 -10 -54 0 -55 -4 -42 -83 7 -40 16
-102 20 -139 3 -38 9 -68 13 -68 38 1 51 14 51 51 0 29 4 39 15 39 34 0 74 30
85 64 15 46 -2 108 -37 135 -29 23 -41 25 -63 11z"/>
<path d="M700 1770 c0 -13 7 -20 19 -20 29 0 51 -11 51 -25 0 -7 -22 -32 -50
-55 -69 -58 -67 -75 13 -89 88 -15 97 -14 97 9 0 16 -7 20 -35 20 -48 0 -45
16 15 75 68 67 66 78 -20 93 -91 15 -90 16 -90 -8z"/>
<path d="M1837 1754 c-28 -15 -32 -43 -6 -35 8 2 29 6 47 9 31 4 33 2 30 -19
-2 -15 -12 -25 -32 -30 -36 -10 -66 -37 -66 -59 0 -26 32 -61 55 -61 39 -1
105 14 114 25 12 16 -8 147 -27 169 -19 21 -76 22 -115 1z"/>
<path d="M897 1753 c-16 -16 -4 -33 28 -39 19 -3 35 -11 35 -17 0 -5 -20 -34
-45 -63 -48 -56 -57 -84 -26 -84 10 0 46 -3 80 -6 58 -7 61 -6 61 15 0 17 -6
21 -35 21 -19 0 -35 5 -35 11 0 6 20 34 45 61 62 69 60 85 -12 93 -32 4 -65 9
-74 11 -8 2 -18 1 -22 -3z"/>
<path d="M1631 1736 c-55 -30 -68 -114 -26 -164 29 -35 62 -44 103 -26 41 17
62 51 62 102 0 79 -73 125 -139 88z"/>
<path d="M1118 1729 c-16 -6 -28 -17 -28 -25 0 -12 9 -14 45 -8 44 6 45 5 45
-20 0 -22 -4 -26 -29 -26 -37 0 -81 -35 -81 -64 0 -38 33 -59 95 -59 31 0 61
5 67 11 16 16 14 161 -4 178 -19 19 -76 26 -110 13z"/>
<path d="M1444 1729 c-58 -29 -70 -128 -21 -177 29 -28 90 -33 115 -8 18 18
10 23 -43 28 -30 3 -30 4 -30 63 0 59 1 60 27 60 16 1 34 7 40 13 27 27 -43
42 -88 21z"/>
</g>
</svg>
